# xmcd
#
# Track frame offsets:
#	150
#	18933
#	33046
#	43930
#	52333
#	64732
#	75597
#	90146
#	97013
#	114733
#	126104
#	141299
#	153788
#	162842
#	176498
#	189170
#	203869
#	216311
#	228330
#	240549
#	253845
#	264823
#	281329
#	298686
#
# Disc length: 3992 seconds
#
# Revision: 0
# Processed by: cddbd v1.5.2PL0 Copyright (c) Steve Scherf et al.
# Submitted via: EasyCDDAExtractor 12.1.0.1
#
DISCID=490f9618
DTITLE=TRIO COISA NOSSA - AO VIVO EM COLATINA EM 17/11/2009 NO SITIO VALBUZA-C
DTITLE=OLATINA-ESPIRITO SANTO
DYEAR=2010
DGENRE=FORRO CAPIXABA
TTITLE0=EU QUERO TE AMAR (BY DJ GILMAR SINISTRO)
TTITLE1=SEGREDOS (BY DJ GILMAR SINISTRO)
TTITLE2=ABRE O SOM (BY DJ GILMAR SINISTRO)
TTITLE3=BOLE BOLE (BY DJ GILMAR SINISTRO)
TTITLE4=CARRO DE APAIXONADO (BY DJ GILMAR SINISTRO)
TTITLE5=PRA DANÇAR A VANERA (BY DJ GILMAR SINISTRO)
TTITLE6=BEIJA-FLOR (BY DJ GILMAR SINISTRO)
TTITLE7=CHUTANDO BALDE (BY DJ GILMAR SINISTRO)
TTITLE8=TARDE DEMAIS (BY DJ GILMAR SINISTRO)
TTITLE9=EI PSIU,BEIJO,ME LIGA (BY DJ GILMAR SINISTRO)
TTITLE10=QUEM TÁ BEBO,QUEM TÁ BÃO (BY DJ GILMAR SINISTRO)
TTITLE11=AMAR TÁ DIFICIL (BY DJ GILMAR SINISTRO)
TTITLE12=DESCE UMA LÁ (BY DJ GILMAR SINISTRO)
TTITLE13=BOI TUFÃO (BY DJ GILMAR SINISTRO)
TTITLE14=NADA MUDOU (BY DJ GILMAR SINISTRO)
TTITLE15=VEM ME DENGAR (BY DJ GILMAR SINISTRO)
TTITLE16=BICA D'ÁGUA (BY DJ GILMAR SINISTRO)
TTITLE17=ACUSARAM O MEU PERÚ (BY DJ GILMAR SINISTRO)
TTITLE18=QUEM É QUE VIU (BY DJ GILMAR SINISTRO)
TTITLE19=PARA DE CHORAR (BY DJ GILMAR SINISTRO)
TTITLE20=VIRA-VIRA (BY DJ GILMAR SINISTRO)
TTITLE21=WHISKY A GO GO (BY DJ GILMAR SINISTRO)
TTITLE22=LABAMBA (BY DJ GILMAR SINISTRO)
TTITLE23=ENCERRAMENTO-TENHA ESTE SHOW NA SUA FESTA [TRIO COISA NOSSA) (BY DJ G
TTITLE23=ILMAR SINISTRO)
EXTD=
EXTT0=
EXTT1=
EXTT2=
EXTT3=
EXTT4=
EXTT5=
EXTT6=
EXTT7=
EXTT8=
EXTT9=
EXTT10=
EXTT11=
EXTT12=
EXTT13=
EXTT14=
EXTT15=
EXTT16=
EXTT17=
EXTT18=
EXTT19=
EXTT20=
EXTT21=
EXTT22=
EXTT23=
PLAYORDER=
